<svg id="MAKE_A_CLAIM" data-name="MAKE A CLAIM" xmlns="http://www.w3.org/2000/svg" viewBox="0 0 879.03 879.03"><defs><style>.cls-1{fill:#ea0079}.cls-2{fill:url(#New_Gradient_Swatch_2)}.cls-3{fill:#efefef}</style><linearGradient id="New_Gradient_Swatch_2" x1="3198.85" y1="1568.2" x2="3941.96" y2="1568.2" gradientTransform="matrix(.71 .71 -.84 .84 2277.09 -2313.1)" gradientUnits="userSpaceOnUse"><stop offset=".5" stop-color="#d10060"/><stop offset="1" stop-color="#ea0079" stop-opacity=".5"/></linearGradient></defs><title>claim-icon-new-claim</title><circle class="cls-1" cx="439.51" cy="439.51" r="439.51"/><path class="cls-2" d="M3453.93 1912.59l-201.33-201.32-7.77-13.72-3.29-18.07.05-414a48.58 48.58 0 0 1 .62-6A53 53 0 0 1 3252 1237c3.16-4.22 10.35-13.85 22.5-17.5 4.37-1.31 10.92-1.88 24-3 0 0 3.38-.29 6.5-.5 17.59-1.18 211.22-.07 222.5 0l22.13 23.13 15.12-15.16 5.05-3.44 6.21-1 4.75 1.34 4.1 3 8.36 8.92 7.29-4.69 7.85-2.58 9-.29 6.94 1.68 8.3 4.52 250.4 250.3c-.07 4.68-.25 11-.72 18.54a428 428 0 0 1-5.25 44.4A437.48 437.48 0 0 1 3831 1681a421.25 421.25 0 0 1-94.67 120.33A440.81 440.81 0 0 1 3590 1888a429 429 0 0 1-87.33 21.33 400.36 400.36 0 0 1-48.74 3.26z" transform="translate(-3004.02 -1034.09)"/><path class="cls-3" d="M499.37 556.2h107.3l-107.3 107.26V556.2z"/><path class="cls-3" d="M3604.25 1573.49h-95.7a20.69 20.69 0 0 0-20.63 20.63v95.68h-194.8a10.45 10.45 0 0 1-10.31-10.31v-411.77a10.45 10.45 0 0 1 10.31-10.31h192.83c6.21-6.5 34.13-34.42 40.59-41.26h-233.42a51.72 51.72 0 0 0-51.57 51.57v411.77a51.72 51.72 0 0 0 51.57 51.57h201.06v-.05c2.35 0 5.2-1.52 8.27-4.59l138.34-138.34c3.06-3.06 4.53-5.9 4.58-8.26l.09-.09v-264.5c-13.63 13.32-27.43 26.48-41.26 39.59v218.66zm0 22l-94.31 94.31h-1.4v-95.68h95.7v1.37z" transform="translate(-3004.02 -1034.09)"/><path class="cls-3" d="M3495.67 1295.44c0 3.8-2.67 6.87-6.47 6.87h-163.84a6.88 6.88 0 0 1-6.87-6.87 6.88 6.88 0 0 1 6.87-6.87h163.84c3.8 0 6.47 3.07 6.47 6.87zm-77.75 118.77c0 3.8-2.52 6.87-6.32 6.87h-86.25a6.88 6.88 0 0 1-6.87-6.87 6.88 6.88 0 0 1 6.87-6.87h86.25c3.8 0 6.32 3.07 6.32 6.87zm-12.76 39.59c0 3.8-2.67 6.87-6.47 6.87h-73.33a6.88 6.88 0 0 1-6.87-6.87 6.88 6.88 0 0 1 6.87-6.87h73.33c3.8 0 6.47 3.07 6.47 6.87zm159.98-39.59c0 3.8-2.67 6.87-6.47 6.87h-30a6.88 6.88 0 0 1-6.87-6.87 6.88 6.88 0 0 1 6.87-6.87h30c3.8 0 6.47 3.07 6.47 6.87zm0 79.19c0 3.8-2.67 6.87-6.47 6.87h-233.31a6.88 6.88 0 0 1-6.87-6.87 6.88 6.88 0 0 1 6.87-6.87h233.32c3.8 0 6.47 3.08 6.47 6.87zm0 39.6c0 3.8-2.67 6.87-6.47 6.87h-233.31a6.88 6.88 0 0 1-6.87-6.87 6.88 6.88 0 0 1 6.87-6.87h233.32c3.8 0 6.47 3.08 6.47 6.87zm-103.24-198c0 3.8-2.42 6.87-6.21 6.87h-130.33a6.88 6.88 0 0 1-6.87-6.87 6.88 6.88 0 0 1 6.87-6.87h130.33c3.8 0 6.21 3.07 6.21 6.87zm-27.03 39.62a6.75 6.75 0 0 1-6.72 6.87h-102.79a6.88 6.88 0 0 1-6.87-6.87 6.88 6.88 0 0 1 6.87-6.87h102.79a6.74 6.74 0 0 1 6.72 6.87zm130.27 79.18a6.75 6.75 0 0 1-6.72 6.87h-88.15a6.88 6.88 0 0 1-6.87-6.87 6.88 6.88 0 0 1 6.87-6.87h88.15a6.74 6.74 0 0 1 6.72 6.87zm-103.96 118.78a6.88 6.88 0 0 1-6.87 6.87h-129a6.88 6.88 0 0 1-6.87-6.87 6.88 6.88 0 0 1 6.87-6.87h129a6.88 6.88 0 0 1 6.87 6.87zm0 39.59a6.88 6.88 0 0 1-6.87 6.87h-129a6.88 6.88 0 0 1-6.87-6.87 6.88 6.88 0 0 1 6.87-6.87h129a6.88 6.88 0 0 1 6.87 6.87zm0 39.59a6.88 6.88 0 0 1-6.87 6.87h-129a6.88 6.88 0 0 1-6.87-6.87 6.88 6.88 0 0 1 6.87-6.87h129a6.88 6.88 0 0 1 6.87 6.87zm95.21-294.83l-43.77-42.93c.77-.92 1.38-1.75 2.09-2.47q37.77-38.07 75.57-76.12c10.87-10.92 25.24-13.44 37.9-6.84 18.38 9.59 23.45 34.74 8.83 49.53-26.55 26.84-53.94 52.83-80.62 78.83zm-53.14-26.93l38.75 38a5.09 5.09 0 0 1-.62 1.17c-11.54 11.6-23 23.32-34.69 34.73-14.87 14.47-32.88 23.73-52.36 30.29a5.35 5.35 0 0 1-4.42-1.08 152.1 152.1 0 0 1-11.24-11.32 5.41 5.41 0 0 1-1-4.48c6.77-20.43 16.53-39.2 31.85-54.61 11.19-11.18 22.7-22.02 33.73-32.7zm10.18-36.4c-4.73-5.38-4.5-13.29 1.58-19.51 10.23-10.46 20.58-20.79 30.89-31.17 6.28-6.32 12.49-12.72 18.86-18.94 6.12-6 14.16-6.06 20.11-.18zm-81.73 138.22l8.9 8.58c-3.16 2.91-6.11 5.74-9.17 8.45-2.72 2.39-5.82 2.34-8.18 0a5.65 5.65 0 0 1-.17-8.2c2.72-3.02 5.69-5.84 8.62-8.83z" transform="translate(-3004.02 -1034.09)"/></svg>